<svg xmlns="http://www.w3.org/2000/svg" width="88" height="88" viewBox="0 0 88 88"><defs><mask id="f91pb" width="2" height="2" x="-1" y="-1"><path fill="#fff" d="M14 12h60v60H14z"/><path d="M44 72c16.569 0 30-13.431 30-30 0-16.569-13.431-30-30-30-16.569 0-30 13.431-30 30 0 16.569 13.431 30 30 30z"/></mask><filter id="f91pa" width="84" height="86" x="2" y="0" filterUnits="userSpaceOnUse"><feOffset dy="2" in="SourceGraphic" result="FeOffset1083Out"/><feGaussianBlur in="FeOffset1083Out" result="FeGaussianBlur1084Out" stdDeviation="0.8 0.8"/></filter><mask id="f91pd" width="2" height="2" x="-1" y="-1"><path fill="#fff" d="M14 12h60v60H14z"/><path d="M44 72c16.569 0 30-13.431 30-30 0-16.569-13.431-30-30-30-16.569 0-30 13.431-30 30 0 16.569 13.431 30 30 30z"/></mask><filter id="f91pc" width="112" height="114" x="-12" y="-14" filterUnits="userSpaceOnUse"><feOffset dy="2" in="SourceGraphic" result="FeOffset1094Out"/><feGaussianBlur in="FeOffset1094Out" result="FeGaussianBlur1095Out" stdDeviation="6.4 6.4"/></filter><mask id="f91pf" width="2" height="2" x="-1" y="-1"><path fill="#fff" d="M26 26h38v38H26z"/><path d="M60.439 26.25H29.06c-1.576 0-3.061 1.476-3.061 3.061v22.194c0 1.775 1.485 3.25 3.061 3.061.248.19 1.53 0 1.53 0v9.184l9.95-9.184s19.65.19 19.898 0c1.576.19 3.061-1.286 3.061-3.06V29.31c0-1.585-1.485-3.061-3.061-3.061z"/></mask><filter id="f91pe" width="64" height="65" x="13" y="13" filterUnits="userSpaceOnUse"><feOffset dy="1" in="SourceGraphic" result="FeOffset1110Out"/><feGaussianBlur in="FeOffset1110Out" result="FeGaussianBlur1111Out" stdDeviation="1.2 1.2"/></filter></defs><g><g><g><g filter="url(#f91pa)"><path fill="none" d="M44 72c16.569 0 30-13.431 30-30 0-16.569-13.431-30-30-30-16.569 0-30 13.431-30 30 0 16.569 13.431 30 30 30z" mask="url(&quot;#f91pb&quot;)"/><path fill-opacity=".2" d="M44 72c16.569 0 30-13.431 30-30 0-16.569-13.431-30-30-30-16.569 0-30 13.431-30 30 0 16.569 13.431 30 30 30z"/></g><g filter="url(#f91pc)"><path fill="none" d="M44 72c16.569 0 30-13.431 30-30 0-16.569-13.431-30-30-30-16.569 0-30 13.431-30 30 0 16.569 13.431 30 30 30z" mask="url(&quot;#f91pd&quot;)"/><path fill="#9d5e9b" d="M44 72c16.569 0 30-13.431 30-30 0-16.569-13.431-30-30-30-16.569 0-30 13.431-30 30 0 16.569 13.431 30 30 30z"/></g><path fill="#9d5e9b" d="M44 72c16.569 0 30-13.431 30-30 0-16.569-13.431-30-30-30-16.569 0-30 13.431-30 30 0 16.569 13.431 30 30 30z"/></g><g><g filter="url(#f91pe)"><path fill="none" d="M60.439 26.25H29.06c-1.576 0-3.061 1.476-3.061 3.061v22.194c0 1.775 1.485 3.25 3.061 3.061.248.19 1.53 0 1.53 0v9.184l9.95-9.184s19.65.19 19.898 0c1.576.19 3.061-1.286 3.061-3.06V29.31c0-1.585-1.485-3.061-3.061-3.061z" mask="url(&quot;#f91pf&quot;)"/><path fill-opacity=".4" d="M60.439 26.25H29.06c-1.576 0-3.061 1.476-3.061 3.061v22.194c0 1.775 1.485 3.25 3.061 3.061.248.19 1.53 0 1.53 0v9.184l9.95-9.184s19.65.19 19.898 0c1.576.19 3.061-1.286 3.061-3.06V29.31c0-1.585-1.485-3.061-3.061-3.061z"/></g><path fill="#fff" d="M60.439 26.25H29.06c-1.576 0-3.061 1.476-3.061 3.061v22.194c0 1.775 1.485 3.25 3.061 3.061.248.19 1.53 0 1.53 0v9.184l9.95-9.184s19.65.19 19.898 0c1.576.19 3.061-1.286 3.061-3.06V29.31c0-1.585-1.485-3.061-3.061-3.061z"/></g></g></g></svg>