<svg xmlns="http://www.w3.org/2000/svg" width="16" height="22" viewBox="0 0 16 22"><g><g><path fill="#fff" d="M2.427 5.25L.962 3.177l2.35-1.958v3.59zm5.579-3.153A1.707 1.707 0 0 1 6.347.777h3.318a1.707 1.707 0 0 1-1.66 1.32zm5.588 3.154l-.884-.443v-3.59l2.35 1.958zm-7.13 6.21H4.088V.777h1.468a2.49 2.49 0 0 0 2.455 2.097A2.49 2.49 0 0 0 10.466.777h1.467v5.947a.388.388 0 0 0 .777 0V5.677l.836.418a.387.387 0 0 0 .49-.124l1.865-2.64a.388.388 0 0 0-.069-.523L12.572.091a.387.387 0 0 0-.25-.091H3.7a.387.387 0 0 0-.25.092L.19 2.808a.388.388 0 0 0-.069.523l1.864 2.64a.388.388 0 0 0 .491.124l.836-.418v6.173c0 .214.174.388.388.388h2.764a.388.388 0 1 0 0-.777z"/></g><g><path fill="#fff" d="M12.893 21.244l-.528-9.496a.388.388 0 0 0-.387-.367h-.73a.388.388 0 0 0-.389.367l-.527 9.496H8.098V9.983h7.03v11.261zM9.313 8.337v.869H8.099v-.87zm.788.869v-.87h3.023v.87zm5.036 0h-1.226v-.87h1.226zm.38-1.646H7.708a.388.388 0 0 0-.388.388v13.684c0 .215.174.389.388.389h2.99a.388.388 0 0 0 .388-.367l.526-9.463.526 9.463a.388.388 0 0 0 .388.367h2.99a.388.388 0 0 0 .389-.389V7.948a.388.388 0 0 0-.388-.388z"/></g></g></svg>