<svg xmlns="http://www.w3.org/2000/svg" width="18" height="18" viewBox="0 0 18 18"><defs><linearGradient id="6bppa" x1="4.72" x2="23.74" y1="14.89" y2="-3.08" gradientUnits="userSpaceOnUse"><stop offset="0" stop-color="#e53656"/><stop offset="1" stop-color="#6082d8"/></linearGradient></defs><g><g transform="rotate(90 9 9)"><path fill="url(#6bppa)" d="M16.941 9c0-4.38-3.562-7.941-7.941-7.941C4.62 1.059 1.059 4.62 1.059 9c0 4.38 3.562 7.941 7.941 7.941 4.38 0 7.941-3.562 7.941-7.941zM18 9c0 4.963-4.037 9-9 9s-9-4.037-9-9 4.037-9 9-9 9 4.037 9 9zm-6.134 0l-4.61 4.61-.748-.748L10.369 9 6.508 5.14l.75-.75z"/></g></g></svg>