<svg xmlns="http://www.w3.org/2000/svg" width="15" height="18" viewBox="0 0 15 18"><g><g><path fill="#fff" d="M14.551 5.739l-1.258 8.538c-.125.648-.412.932-.62 1.14-.202.2-.337.334-.337.987v1.067a.53.53 0 0 1-1.059 0v-1.067c0-1.01.295-1.386.65-1.738.164-.163.263-.262.322-.566l1.255-8.512c.019-.13.054-.571-.29-.619-.118-.017-.214.002-.29.06-.102.076-.174.222-.2.4l-.526 3.512a.53.53 0 0 1-.825.355c-.053.009-.142-.024-.231-.082a.527.527 0 0 1-.243-.474l.302-5.597a.51.51 0 0 0-.457-.564.495.495 0 0 0-.367.116.496.496 0 0 0-.177.34l-.49 5.063a.52.52 0 0 1-.562.477 5.245 5.245 0 0 0-.26-.011.53.53 0 0 1-.52-.52l-.121-6.48a.499.499 0 0 0-.496-.505.496.496 0 0 0-.495.495L7.13 8.528a.53.53 0 0 1-.303.469c-.066.032-.13.063-.19.097a.533.533 0 0 1-.788-.41l-.545-5.642a.5.5 0 1 0-.994.08l.533 7.514a.528.528 0 0 1-.943.366L2.26 8.934c-.215-.36-.595-.46-.89-.29a.616.616 0 0 0-.225.846l3.737 6.445a.61.61 0 0 0 .388.29.53.53 0 0 1 .405.515v.73a.53.53 0 0 1-1.059 0v-.37a1.66 1.66 0 0 1-.65-.633L.227 10.022a1.657 1.657 0 0 1-.169-1.273 1.679 1.679 0 0 1 3.074-.409l.535.672-.411-5.806a1.555 1.555 0 0 1 1.416-1.68 1.56 1.56 0 0 1 1.511.816l.014-.796a1.554 1.554 0 0 1 3.109.01l.015.79c.093-.173.218-.329.373-.46a1.563 1.563 0 0 1 2.561 1.332L12.2 4.253l.086-.07a1.428 1.428 0 0 1 1.078-.262c.831.115 1.322.864 1.188 1.818z"/></g></g></svg>