<svg xmlns="http://www.w3.org/2000/svg" width="577" height="389" viewBox="0 0 577 389"><defs><linearGradient id="k5toa" x1="212.2" x2="626.64" y1="245.79" y2="-64.4" gradientUnits="userSpaceOnUse"><stop offset="0" stop-color="#e53656"/><stop offset="1" stop-color="#6082d8"/></linearGradient><linearGradient id="k5tob" x1="456.26" x2="522.71" y1="120.15" y2="56.21" gradientUnits="userSpaceOnUse"><stop offset="0" stop-color="#e53656"/><stop offset="1" stop-color="#6082d8"/></linearGradient><linearGradient id="k5toc" x1="445.54" x2="581.6" y1="217.76" y2="155.44" gradientUnits="userSpaceOnUse"><stop offset="0" stop-color="#e53656"/><stop offset="1" stop-color="#6082d8"/></linearGradient><linearGradient id="k5tod" x1="491.58" x2="641.11" y1="30.31" y2="-8.64" gradientUnits="userSpaceOnUse"><stop offset="0" stop-color="#e53656"/><stop offset="1" stop-color="#6082d8"/></linearGradient><linearGradient id="k5toe" x1="361.62" x2="511.13" y1="28.19" y2="-10.75" gradientUnits="userSpaceOnUse"><stop offset="0" stop-color="#e53656"/><stop offset="1" stop-color="#6082d8"/></linearGradient></defs><g><g transform="rotate(6 291.5 188)"><g><g><path fill="#b74256" d="M233.97 151.312c-24.417-3.557-49.901 2.402-67.652 17.581-31.473 28.352-30.925 75.466 1.247 103.945 39.367 32.233 106.225 23.706 207.517 11.399l24.452-2.872c2.239-.261 4.123-1.75 4.207-3.309l.926-17.083c3.786-70.319 6.3-116.342-33.067-148.574-32.172-28.48-81.994-36.847-113.466-15.703-17.751 12.737-26.341 33.57-24.165 54.616z"/></g><g><path fill="url(#k5toa)" d="M233.97 138.172c-24.417-3.557-49.901 2.402-67.652 17.581-31.473 28.352-30.925 75.466 1.247 103.945 39.367 32.233 106.225 23.706 207.517 11.399l24.452-2.872c2.239-.261 4.123-1.75 4.207-3.309l.926-17.083c3.786-70.319 6.3-116.342-33.067-148.574-32.172-28.48-81.994-36.847-113.466-15.703-17.751 12.737-26.341 33.57-24.165 54.616z"/></g></g><g transform="rotate(-10 135 339.5)"><g transform="rotate(-28 134.5 343)"><path fill="none" stroke="#b74256" stroke-miterlimit="50" stroke-width="10" d="M150.93 383.671c14.172 3.247 25.661-5.61 25.661-19.782s-11.489-28.292-25.66-31.539c-14.172-3.246-25.661 5.611-25.661 19.783s11.489 28.292 25.66 31.538z"/></g><g transform="rotate(-23 135.5 336)"><path fill="none" stroke="#e73453" stroke-miterlimit="50" stroke-width="10" d="M152.44 377.281c14.172 3.247 25.661-5.61 25.661-19.782s-11.489-28.292-25.66-31.539c-14.172-3.246-25.661 5.611-25.661 19.783s11.489 28.292 25.66 31.538z"/></g></g><g transform="rotate(-17 82.5 215.5)"><g transform="rotate(-28 82 218.5)"><path fill="#b74256" d="M85.132 261.096c11.671 2.674 21.132-4.62 21.132-16.291s-9.46-23.3-21.132-25.973C73.462 216.16 64 223.452 64 235.124c0 11.67 9.461 23.3 21.132 25.972z"/></g><g transform="rotate(-23 83 212.5)"><path fill="#e73453" d="M87.692 255.126c11.671 2.674 21.132-4.62 21.132-16.291s-9.46-23.3-21.132-25.973c-11.67-2.673-21.132 4.62-21.132 16.292 0 11.67 9.461 23.3 21.132 25.972z"/></g></g><g transform="rotate(-17 472.5 127.5)"><g transform="rotate(-28 472 130.5)"><path fill="#b74256" d="M463.752 133.056c11.671 2.674 21.132-4.62 21.132-16.291s-9.46-23.3-21.132-25.973c-11.67-2.673-21.132 4.62-21.132 16.292 0 11.67 9.461 23.3 21.132 25.972z"/></g><g transform="rotate(-23 473 124.5)"><path fill="url(#k5tob)" d="M466.312 127.086c11.671 2.674 21.132-4.62 21.132-16.291s-9.46-23.3-21.132-25.973c-11.67-2.673-21.132 4.62-21.132 16.292 0 11.67 9.461 23.3 21.132 25.972z"/></g></g><g><g transform="rotate(-35 50.5 303)"><path fill="#b74256" d="M20.27 325.42c0-10.493 8.507-19 19-19h48.541c10.494 0 19 8.507 19 19v4.264c0 10.494-8.506 19-19 19H39.27c-10.493 0-19-8.506-19-19z"/></g><g transform="rotate(-35 52 296)"><path fill="#e73453" d="M21.32 318.02c0-10.493 8.507-19 19-19h48.541c10.494 0 19 8.507 19 19v4.264c0 10.494-8.506 19-19 19H40.32c-10.493 0-19-8.506-19-19z"/></g></g><g><g transform="rotate(-35 462 230)"><path fill="#b74256" d="M421.78 209.19c0-10.493 8.507-19 19-19h48.541c10.494 0 19 8.507 19 19v4.264c0 10.494-8.506 19-19 19H440.78c-10.493 0-19-8.506-19-19z"/></g><g transform="rotate(-35 463.5 222)"><path fill="url(#k5toc)" d="M422.84 201.79c0-10.493 8.507-19 19-19h48.541c10.494 0 19 8.507 19 19v4.264c0 10.494-8.506 19-19 19H441.84c-10.493 0-19-8.506-19-19z"/></g></g><g><g transform="rotate(-35 277 348)"><path fill="#b74256" d="M248.57 348.16c0-6.627 5.373-12 12-12h65.56c6.628 0 12 5.373 12 12v.151c0 6.628-5.372 12-12 12h-65.56c-6.627 0-12-5.372-12-12z"/></g><g transform="rotate(-35 279 341.5)"><path fill="#e73453" d="M249.63 341.82c0-6.627 5.373-12 12-12h65.56c6.628 0 12 5.373 12 12v.151c0 6.628-5.372 12-12 12h-65.56c-6.627 0-12-5.372-12-12z"/></g></g><g><g transform="rotate(-35 529 53.5)"><path fill="#b74256" d="M465.59 28.85c0-7.18 5.82-13 13-13h69.095c7.18 0 13 5.82 13 13v.415c0 7.18-5.82 13-13 13H478.59c-7.18 0-13-5.82-13-13z"/></g><g transform="rotate(-35 530.5 46)"><path fill="url(#k5tod)" d="M466.64 21.45c0-7.18 5.82-13 13-13h69.095c7.18 0 13 5.82 13 13v.415c0 7.18-5.82 13-13 13H479.64c-7.18 0-13-5.82-13-13z"/></g></g><g><g transform="rotate(-35 399.5 37.5)"><path fill="#b74256" d="M335.62 26.73c0-7.18 5.82-13 13-13h69.095c7.18 0 13 5.82 13 13v.415c0 7.18-5.82 13-13 13H348.62c-7.18 0-13-5.82-13-13z"/></g><g transform="rotate(-35 401.5 30.5)"><path fill="url(#k5toe)" d="M336.68 19.34c0-7.18 5.82-13 13-13h69.095c7.18 0 13 5.82 13 13v.415c0 7.18-5.82 13-13 13H349.68c-7.18 0-13-5.82-13-13z"/></g></g></g></g></svg>