<svg xmlns="http://www.w3.org/2000/svg" width="36" height="34" viewBox="0 0 36 34"><defs><linearGradient id="nn2qa" x1="9.44" x2="47.49" y1="26.92" y2="-5.58" gradientUnits="userSpaceOnUse"><stop offset="0" stop-color="#e53656"/><stop offset="1" stop-color="#6082d8"/></linearGradient></defs><g><g><path fill="url(#nn2qa)" d="M18 3c-1.962-1.5-4.968-3-8-3C4.347 0 0 4.475 0 10c0 7.185 6.12 12.901 16 21-.61.563 1.318 2.363 1.318 2.363a1 1 0 0 0 1.364 0S20.61 31.563 20 31c9.88-8.099 16-13.815 16-21 0-5.525-4.347-10-10-10-3.032 0-6.038 1.5-8 3z"/></g></g></svg>