<svg xmlns="http://www.w3.org/2000/svg" width="18" height="17" viewBox="0 0 18 17"><g><g><path fill="#fff" d="M8.745 16.87a.501.501 0 0 0 .477 0c5.668-3.09 8.726-8.177 8.726-11.392A5.484 5.484 0 0 0 12.47 0a5.499 5.499 0 0 0-4.968 3.166.498.498 0 1 0 .903.421A4.5 4.5 0 0 1 12.47.996a4.487 4.487 0 0 1 4.482 4.482c0 2.924-2.975 7.57-7.968 10.386C3.99 13.047 1.016 8.402 1.016 5.478a4.487 4.487 0 0 1 6.277-4.109.498.498 0 1 0 .399-.912A5.484 5.484 0 0 0 .02 5.477C.019 8.694 3.077 13.78 8.744 16.872z"/></g></g></svg>