<svg xmlns="http://www.w3.org/2000/svg" width="18" height="15" viewBox="0 0 18 15"><g><g><path fill="#fff" d="M15.927 6.368V2.095H1.656c-.29 0-.582-.145-.582-.467a.578.578 0 0 1 .582-.57h15.285v5.31zm1.014 5.67h-1.014v-1.435h1.014zm-5.1-2.504c-.33 0-.596-.236-.596-.527V7.954c0-.291.268-.527.596-.527h5.1v2.107zM1.059 13.21V3.063c.025.008.057.005.082.013.152.044.31.072.48.075.007 0 .013.003.02.003H14.87v3.214h-3.027c-.913 0-1.655.712-1.655 1.588v1.059c0 .875.742 1.588 1.655 1.588h3.027v3.177H1.641a.577.577 0 0 1-.582-.57zM.015 1.628H0v11.583c0 .898.736 1.628 1.641 1.628h14.286v-1.752H18V0H1.656C.752 0 .015.73.015 1.628z"/></g></g></svg>